<svg width="180" height="72" viewBox="0 0 180 72" fill="none" xmlns="http://www.w3.org/2000/svg">
<g id="college-logo">
<rect width="180" height="72" fill="white"/>
<g id="Group 3">
<g id="Group">
<g id="Group 68">
<mask id="mask0" mask-type="alpha" maskUnits="userSpaceOnUse" x="0" y="0" width="66" height="72">
<path id="Clip 67" fill-rule="evenodd" clip-rule="evenodd" d="M0 0.000114441H65.2669V72H0V0.000114441Z" fill="white"/>
</mask>
<g mask="url(#mask0)">
<path id="Fill 66" fill-rule="evenodd" clip-rule="evenodd" d="M1.62675 1.62686V32.9817C1.62675 33.0346 1.70212 38.6619 5.58562 46.0396C9.14738 52.8087 16.731 62.4702 32.652 70.1956C48.5854 62.468 56.1589 52.8065 59.7094 46.0385C63.5805 38.6619 63.6413 33.0357 63.6413 32.9806V1.62686H1.62675ZM32.652 72.0001L32.2999 71.8314C15.6825 63.8607 7.79062 53.7661 4.095 46.7011C0.0618749 38.9892 0 33.2247 0 32.984V0.000114441H65.2669V32.9817C65.2669 33.2225 65.2219 38.9859 61.2011 46.6977C57.5168 53.7616 49.6339 63.8574 33.003 71.8314L32.652 72.0001Z" fill="#0D395F"/>
</g>
</g>
<path id="Fill 69" fill-rule="evenodd" clip-rule="evenodd" d="M20.8918 12.2578C20.1572 11.2734 19.1807 10.4825 18.0455 9.97965C18.4798 10.6085 18.8465 11.3803 19.1289 12.2578H20.8918Z" fill="#0D395F"/>
<path id="Fill 71" fill-rule="evenodd" clip-rule="evenodd" d="M15.7634 9.51829V12.2577H17.8491C17.3226 10.8244 16.5576 9.85241 15.7634 9.51829Z" fill="#0D395F"/>
<path id="Fill 73" fill-rule="evenodd" clip-rule="evenodd" d="M11.782 15.9206H14.5439V13.4782H12.0981C11.9282 14.2139 11.8169 15.0329 11.782 15.9206Z" fill="#0D395F"/>
<path id="Fill 75" fill-rule="evenodd" clip-rule="evenodd" d="M12.4581 12.2578H14.5439V9.5184C13.7496 9.85253 12.9846 10.8245 12.4581 12.2578Z" fill="#0D395F"/>
<path id="Fill 77" fill-rule="evenodd" clip-rule="evenodd" d="M12.0984 19.584H14.5441V17.1405H11.7822C11.8171 18.0281 11.9285 18.8471 12.0984 19.584Z" fill="#0D395F"/>
<path id="Fill 79" fill-rule="evenodd" clip-rule="evenodd" d="M14.5439 23.5434V20.8041H12.4581C12.9846 22.2373 13.7496 23.2093 14.5439 23.5434Z" fill="#0D395F"/>
<path id="Fill 81" fill-rule="evenodd" clip-rule="evenodd" d="M10.5625 17.1406H8.02002C8.09427 18.0091 8.32489 18.8304 8.68152 19.5841H10.8573C10.6964 18.8202 10.5951 18.0012 10.5625 17.1406Z" fill="#0D395F"/>
<path id="Fill 83" fill-rule="evenodd" clip-rule="evenodd" d="M18.2085 13.4777H15.7639V15.9201H18.5257C18.4897 15.0336 18.3795 14.2146 18.2085 13.4777Z" fill="#0D395F"/>
<path id="Fill 85" fill-rule="evenodd" clip-rule="evenodd" d="M10.8564 13.4777H8.68176C8.32514 14.2304 8.09339 15.0527 8.02026 15.9201H10.5628C10.5954 15.0606 10.6955 14.2416 10.8564 13.4777Z" fill="#0D395F"/>
<path id="Fill 87" fill-rule="evenodd" clip-rule="evenodd" d="M9.41656 20.804C10.1501 21.7872 11.1266 22.577 12.2617 23.0798C11.8274 22.4521 11.4607 21.6803 11.1783 20.804H9.41656Z" fill="#0D395F"/>
<path id="Fill 89" fill-rule="evenodd" clip-rule="evenodd" d="M19.7454 15.9206H22.2879C22.2137 15.0532 21.9831 14.2308 21.6264 13.4782H19.4507C19.6116 14.2409 19.7117 15.0599 19.7454 15.9206Z" fill="#0D395F"/>
<path id="Fill 91" fill-rule="evenodd" clip-rule="evenodd" d="M12.261 9.98077C11.127 10.4836 10.1505 11.2745 9.41589 12.2578H11.1788C11.4611 11.3803 11.8268 10.6096 12.261 9.98077Z" fill="#0D395F"/>
<path id="Fill 93" fill-rule="evenodd" clip-rule="evenodd" d="M19.4504 19.584H21.6262C21.9817 18.8314 22.2146 18.009 22.2877 17.1405H19.7452C19.7114 18.0011 19.6113 18.8201 19.4504 19.584Z" fill="#0D395F"/>
<path id="Fill 95" fill-rule="evenodd" clip-rule="evenodd" d="M57.6197 20.2366L49.8009 24.8221L41.9765 20.2366V11.384H43.1972V19.538L49.8009 23.408L56.4002 19.538V11.384H57.6197V20.2366ZM44.4268 10.61C44.4268 10.61 47.6814 10.6629 49.1428 13.3539V21.5304C47.6814 18.8394 44.4268 18.7865 44.4268 18.7865C44.4268 18.7865 44.3807 10.5571 44.4268 10.61ZM50.3544 13.4236C51.8315 10.7337 55.1199 10.6809 55.1199 10.6809C55.1683 10.628 55.1199 18.8574 55.1199 18.8574C55.1199 18.8574 51.8315 18.9091 50.3544 21.6001V13.4236ZM39.7119 26.0281H25.556V24.605H27.6992V17.6086H37.5665V24.605H39.7119V26.0281ZM15.1543 24.9155C10.5305 24.9155 6.76855 21.1535 6.76855 16.5309C6.76855 11.9071 10.5305 8.14511 15.1543 8.14511C19.7769 8.14511 23.5389 11.9071 23.5389 16.5309C23.5389 21.1535 19.7769 24.9155 15.1543 24.9155ZM33.3455 3.61474V4.42699C33.9654 4.69361 34.403 5.28424 34.403 5.98174C34.403 6.67699 33.9654 7.26874 33.3455 7.53424V8.52086C34.277 8.86174 35.96 9.67736 36.7284 11.3345C37.4484 12.8859 37.58 14.2291 37.5879 14.9649H38.2505V16.388H27.0174V14.9649H27.68C27.6868 14.2291 27.8184 12.8859 28.5384 11.3345C29.3068 9.68074 30.9887 8.86174 31.9224 8.51974V7.53311C31.3014 7.26761 30.8638 6.67699 30.8638 5.98174C30.8638 5.28424 31.3014 4.69474 31.9224 4.42811V3.61474H3.99542V32.1132C3.99542 32.1132 3.99992 33.3946 4.42405 35.5287C4.47242 35.5119 4.52192 35.495 4.57142 35.4781C7.62467 34.4364 13.1349 32.6487 16.7833 32.6487C20.4317 32.6487 21.7715 33.6174 25.2725 33.6174C25.6753 33.6174 26.0645 33.6252 26.447 33.6399V27.2397H38.8209V33.8491C41.2993 33.7737 43.1454 33.8469 45.3774 34.2496C48.4678 34.8087 50.3668 36.8191 52.5628 37.1544C54.7599 37.4885 56.6949 37.0047 59.0417 37.1172C59.6458 37.1454 60.0857 37.1656 60.4772 37.1847C61.2703 34.073 61.2725 32.1132 61.2725 32.1132V3.61474H33.3455Z" fill="#0D395F"/>
<path id="Fill 97" fill-rule="evenodd" clip-rule="evenodd" d="M18.5259 17.1406H15.7629V19.5841H18.2087C18.3797 18.8472 18.4899 18.0282 18.5259 17.1406Z" fill="#0D395F"/>
<path id="Fill 99" fill-rule="evenodd" clip-rule="evenodd" d="M15.7634 23.5429C16.5576 23.2076 17.3226 22.2367 17.8491 20.8035H15.7634V23.5429Z" fill="#0D395F"/>
<path id="Fill 101" fill-rule="evenodd" clip-rule="evenodd" d="M18.0453 23.081C19.1805 22.5781 20.157 21.7872 20.8916 20.804H19.1287C18.8452 21.6815 18.4796 22.4521 18.0453 23.081Z" fill="#0D395F"/>
<path id="Fill 103" fill-rule="evenodd" clip-rule="evenodd" d="M31.3144 33.066H33.9525V28.5019H31.3144V33.066Z" fill="#0D395F"/>
<path id="Fill 105" fill-rule="evenodd" clip-rule="evenodd" d="M30.8526 54.6111C30.6512 54.4502 30.3384 54.2894 29.8153 54.0722C29.4216 54.2815 29.1403 54.6032 29.1403 55.069C29.1403 55.6315 29.5419 55.9937 30.1697 55.9937C30.7322 55.9937 31.1181 55.6641 31.1181 55.1905C31.1181 54.9407 31.0303 54.7472 30.8526 54.6111Z" fill="#0D395F"/>
<path id="Fill 106" fill-rule="evenodd" clip-rule="evenodd" d="M30.1769 53.3247C30.5301 53.1469 30.9498 52.8668 30.9498 52.4235C30.9498 51.9972 30.6359 51.7407 30.097 51.7407C29.5818 51.7407 29.2443 52.0219 29.2443 52.4393C29.2443 52.9062 29.8 53.1717 30.1769 53.3247Z" fill="#0D395F"/>
<path id="Fill 107" fill-rule="evenodd" clip-rule="evenodd" d="M33.9336 52.4396C33.8042 52.785 33.7491 53.2429 33.7491 53.8144C33.7491 54.3544 33.7885 54.7729 33.8605 55.0699C34.0056 55.6965 34.2947 55.962 34.6322 55.962C34.9708 55.962 35.2431 55.6729 35.3893 55.206C35.4928 54.8606 35.5412 54.4028 35.5412 53.8628C35.5412 53.3396 35.5018 52.9785 35.4208 52.632C35.2678 52.0054 34.9945 51.7646 34.6412 51.7646C34.3273 51.7646 34.0855 52.0144 33.9336 52.4396Z" fill="#0D395F"/>
<path id="Fill 108" fill-rule="evenodd" clip-rule="evenodd" d="M39.1275 56.6216C37.7123 56.6216 37.2623 54.9723 37.2623 53.8226C37.2623 52.2386 38.0666 51.0967 39.1365 51.0967C40.5765 51.0967 41.0254 52.6807 41.0254 53.8462C41.0254 55.5123 40.2536 56.6216 39.1275 56.6216ZM34.6253 56.6216C33.2089 56.6216 32.7589 54.9723 32.7589 53.8226C32.7589 52.2386 33.5633 51.0967 34.632 51.0967C36.072 51.0967 36.5231 52.6807 36.5231 53.8462C36.5231 55.5123 35.7514 56.6216 34.6253 56.6216ZM30.0803 56.6531C29.1566 56.6531 28.1824 56.1952 28.1824 55.1343C28.1824 54.483 28.6178 53.9598 29.2129 53.7506C28.7213 53.5503 28.3523 53.0587 28.3523 52.5198C28.3523 51.4983 29.3006 51.0967 30.177 51.0967C31.1906 51.0967 31.8904 51.6356 31.8904 52.4242C31.8904 53.0823 31.3751 53.4536 30.8205 53.6617C31.6013 53.9835 32.0918 54.3693 32.0918 55.0376C32.0918 56.0748 31.005 56.6531 30.0803 56.6531ZM27.4028 56.5012H24.8535V55.7857H25.7861V52.2138C25.7063 52.2633 25.4565 52.4242 25.2394 52.5277C25.0223 52.6323 24.7253 52.7606 24.6285 52.7932L24.4114 52.3196L26.028 51.1845H26.6558V55.7857H27.4028V56.5012ZM40.869 44.5188V44.547H24.4271L12.5123 52.0102C16.7569 57.2021 23.112 62.6145 32.6385 67.1775C42.1875 62.6055 48.5483 57.183 52.7873 51.9843L40.869 44.5188Z" fill="#0D395F"/>
<path id="Fill 109" fill-rule="evenodd" clip-rule="evenodd" d="M39.1439 51.7646C38.8301 51.7646 38.5893 52.0144 38.4363 52.4396C38.3069 52.785 38.2518 53.2429 38.2518 53.8144C38.2518 54.3544 38.2912 54.7729 38.3643 55.0699C38.5083 55.6965 38.7974 55.962 39.1361 55.962C39.4736 55.962 39.7469 55.6729 39.8921 55.206C39.9967 54.8606 40.0439 54.4028 40.0439 53.8628C40.0439 53.3396 40.0046 52.9785 39.9236 52.632C39.7706 52.0054 39.4972 51.7646 39.1439 51.7646Z" fill="#0D395F"/>
<path id="Fill 110" fill-rule="evenodd" clip-rule="evenodd" d="M24.1448 36.2779H41.1222V35.0584H24.1448V36.2779Z" fill="#0D395F"/>
<path id="Fill 111" fill-rule="evenodd" clip-rule="evenodd" d="M27.4612 41.6959H37.8067V39.2243H27.4612V41.6959ZM26.2406 42.9165H39.0262V38.0048H26.2406V42.9165Z" fill="#0D395F"/>
<path id="Fill 112" fill-rule="evenodd" clip-rule="evenodd" d="M31.3144 23.058H33.9525V18.963H31.3144V23.058Z" fill="#0D395F"/>
<path id="Fill 113" fill-rule="evenodd" clip-rule="evenodd" d="M29.0801 23.0558H29.8935V18.9686H29.0801V23.0558Z" fill="#0D395F"/>
<path id="Fill 114" fill-rule="evenodd" clip-rule="evenodd" d="M35.3722 23.0558H36.1856V18.9686H35.3722V23.0558Z" fill="#0D395F"/>
<path id="Fill 115" fill-rule="evenodd" clip-rule="evenodd" d="M33.4086 5.9823C33.4086 6.38618 33.0621 6.71468 32.6346 6.71468C32.2059 6.71468 31.8594 6.38618 31.8594 5.9823C31.8594 5.57505 32.2059 5.24655 32.6346 5.24655C33.0621 5.24655 33.4086 5.57505 33.4086 5.9823Z" fill="#0D395F"/>
<path id="Fill 116" fill-rule="evenodd" clip-rule="evenodd" d="M24.3981 40.1257L10.2839 49.0256C10.5842 49.4655 10.8992 49.9065 11.2289 50.352L24.3981 42.0483V40.1257Z" fill="#0D395F"/>
<path id="Fill 117" fill-rule="evenodd" clip-rule="evenodd" d="M40.8683 42.1175L54.0139 50.4257C54.3447 49.9802 54.6597 49.5392 54.9612 49.0993L40.8683 40.1927V42.1175Z" fill="#0D395F"/>
</g>
</g>
<g id="Group 2 Copy">
<path id="Fill 1" fill-rule="evenodd" clip-rule="evenodd" d="M77.31 23.2107L78.9826 22.8783L79.1888 20.78V13.3215L78.9826 11.2232L77.31 10.8908V10.2676H81.769L82.8224 13.3215L85.9396 21.4864L89.1389 13.3007L90.1096 10.2676H94.5686V10.8908L92.9167 11.2232L92.6898 13.3215V20.78L92.9167 22.8783L94.5686 23.2107V23.8552H88.8713V23.2107L90.5221 22.8783L90.7495 20.78V11.6804L87.1987 20.78L86.1464 23.8552H84.8046L83.6897 20.78L80.1176 11.6804V20.78L80.3445 22.8783L81.9964 23.2107V23.8552H77.31V23.2107Z" fill="black"/>
<path id="Fill 2" fill-rule="evenodd" clip-rule="evenodd" d="M97.2259 10.4546C97.2259 9.74822 97.8038 9.14532 98.5264 9.14532C99.2283 9.14532 99.8273 9.72797 99.8273 10.4754C99.8273 11.1402 99.2903 11.7633 98.5264 11.7633C97.8239 11.7633 97.2259 11.2436 97.2259 10.4546ZM96.1524 23.211L97.5976 22.941L97.8038 21.3618V17.0819L97.5976 15.4824L95.9456 15.2119V14.568L99.7854 14.1946L99.5792 17.0819V21.3618L99.7854 22.941L101.231 23.211V23.8549H96.1524V23.211Z" fill="black"/>
<path id="Fill 4" fill-rule="evenodd" clip-rule="evenodd" d="M108.59 21.5697V15.4199C108.012 15.1707 107.557 15.0464 106.917 15.0464C104.976 15.0464 103.903 16.6667 103.903 19.2217C103.903 21.4865 104.729 22.8582 106.339 22.8582C107.063 22.8582 107.826 22.5252 108.59 21.5697ZM102.045 19.6587C102.045 16.417 104.068 14.132 107 14.132C107.578 14.132 108.032 14.1944 108.59 14.3187V11.888L108.362 10.2879L106.711 10.0186V9.37405L110.572 9.00005L110.344 11.888V21.3616L110.572 22.9408L111.913 23.2108V23.8547L108.59 24.2912L108.9 22.3177C107.949 23.6061 106.979 24.2912 105.617 24.2912C103.531 24.2912 102.045 22.4836 102.045 19.6587Z" fill="black"/>
<path id="Fill 6" fill-rule="evenodd" clip-rule="evenodd" d="M119.203 21.5697V15.4199C118.625 15.1707 118.171 15.0464 117.531 15.0464C115.589 15.0464 114.517 16.6667 114.517 19.2217C114.517 21.4865 115.342 22.8582 116.953 22.8582C117.676 22.8582 118.44 22.5252 119.203 21.5697ZM112.658 19.6587C112.658 16.417 114.682 14.132 117.613 14.132C118.191 14.132 118.646 14.1944 119.203 14.3187V11.888L118.976 10.2879L117.325 10.0186V9.37405L121.185 9.00005L120.958 11.888V21.3616L121.185 22.9408L122.526 23.2108V23.8547L119.203 24.2912L119.513 22.3177C118.563 23.6061 117.593 24.2912 116.23 24.2912C114.145 24.2912 112.658 22.4836 112.658 19.6587Z" fill="black"/>
<path id="Fill 8" fill-rule="evenodd" clip-rule="evenodd" d="M123.83 23.2107L125.275 22.9413L125.502 21.3616V11.8879L125.275 10.2879L123.624 10.0185V9.374L127.464 9L127.257 11.8879V21.3616L127.484 22.9413L128.908 23.2107V23.8552H123.83V23.2107Z" fill="black"/>
<path id="Fill 10" fill-rule="evenodd" clip-rule="evenodd" d="M134.149 17.6639L135.552 17.4558C135.552 15.8147 134.789 14.9632 133.653 14.9632C132.497 14.9632 131.692 15.8355 131.465 17.6639H134.149ZM129.648 19.305C129.648 16.1471 131.238 14.132 133.818 14.132C135.986 14.132 137.493 15.5448 137.411 18.4951H131.444C131.444 18.4951 131.424 18.7859 131.424 18.9523C131.424 21.2992 132.559 22.9617 134.748 22.9617C135.408 22.9617 136.151 22.7958 136.873 22.2553L137.287 22.816C136.11 23.897 135.223 24.2912 133.736 24.2912C131.279 24.2912 129.648 22.5045 129.648 19.305Z" fill="black"/>
<path id="Fill 12" fill-rule="evenodd" clip-rule="evenodd" d="M145.883 19.1391C145.883 16.9992 144.974 15.5448 143.592 15.5448C142.746 15.5448 141.94 15.8974 141.197 16.7709V21.3617L141.403 23.1698C141.899 23.3357 142.25 23.419 142.787 23.419C144.914 23.419 145.883 21.5074 145.883 19.1391ZM139.421 23.8548V11.8881L139.215 10.2881L137.564 10.0187V9.37416L141.403 9.00017L141.197 11.8881V15.794C141.96 14.776 143.076 14.1321 144.335 14.1321C146.317 14.1321 147.7 15.8356 147.7 18.4744C147.7 21.6947 145.78 24.2913 142.063 24.2913C141.197 24.2913 140.598 24.2913 139.421 23.8548Z" fill="black"/>
<path id="Fill 14" fill-rule="evenodd" clip-rule="evenodd" d="M150.095 21.0504V17.0821L149.868 15.4826L148.257 15.2121V14.5682L152.077 14.1947L151.87 17.0821V20.5723C151.87 22.0059 152.53 22.8782 153.832 22.8782C154.719 22.8782 155.524 22.3383 156.102 21.6319V17.0821L155.896 15.4826L154.285 15.2121V14.5682L158.104 14.1947L157.878 17.0821V21.3619L158.104 22.9412L159.591 23.2106V23.8551L156.102 24.2291L156.33 22.3596C155.359 23.71 154.492 24.2915 153.026 24.2915C151.209 24.2915 150.095 23.1279 150.095 21.0504Z" fill="black"/>
<g id="Group 18">
<mask id="mask1" mask-type="alpha" maskUnits="userSpaceOnUse" x="168" y="14" width="12" height="16">
<path id="Clip 17" fill-rule="evenodd" clip-rule="evenodd" d="M168.997 14.5677H179.154V29.0489H168.997V14.5677Z" fill="white"/>
</mask>
<g mask="url(#mask1)">
<path id="Fill 16" fill-rule="evenodd" clip-rule="evenodd" d="M169.823 28.779V28.0726L171.887 27.7402L172.774 26.2859L173.663 24.1876L170.772 17.0822L169.926 15.4614L168.997 15.2122V14.5677H173.518V15.2122L172.197 15.4614L172.693 17.0822L174.55 21.8812L176.284 17.0822L176.738 15.4614L175.438 15.2122V14.5677H179.154V15.2122L178.101 15.4614L177.317 17.0822L172.816 29.0489L169.823 28.779Z" fill="black"/>
</g>
</g>
<path id="Fill 19" fill-rule="evenodd" clip-rule="evenodd" d="M167.068 14.4106C165.896 14.4106 164.971 15.0709 164.107 16.5337C164.104 16.5112 164.1 16.4893 164.099 16.4668L164.102 16.2244C164.109 16.1186 164.122 16.0129 164.133 15.9077C164.159 15.6766 164.185 15.446 164.212 15.2154C164.25 14.878 164.287 14.54 164.326 14.2031L160.696 14.576V15.2194L162.346 15.4893L162.572 17.0871V21.3613L162.346 22.9389L160.903 23.2088V23.8522H166.201V23.2088L164.552 22.9389L164.326 21.3613V20.8647V19.5155V18.0179V17.6067V17.4369C164.326 17.4099 164.328 17.3818 164.329 17.3531C164.927 16.6096 165.728 16.3408 166.346 16.3408C166.779 16.3408 167.212 16.4859 167.563 16.6518L168.079 14.5557C167.645 14.4314 167.439 14.4106 167.068 14.4106Z" fill="black"/>
<path id="Fill 21" fill-rule="evenodd" clip-rule="evenodd" d="M77 39.8713C77 36.0481 79.1471 32.7035 84.1224 32.7035C85.4021 32.7035 86.517 32.807 88.2103 33.1602L88.4165 36.3186H87.405L86.9306 33.9914C86.1454 33.7209 85.1546 33.5342 84.0604 33.5342C80.9018 33.5342 79.085 35.8406 79.085 39.4973C79.085 43.2789 80.9018 46.1247 84.2666 46.1247C85.1132 46.1247 86.2695 45.9166 87.0949 45.5639L87.5699 43.3408H88.5819L88.3752 46.5195C86.9507 46.7686 85.98 46.9559 83.8748 46.9559C79.0029 46.9559 77 43.9223 77 39.8713Z" fill="black"/>
<path id="Fill 23" fill-rule="evenodd" clip-rule="evenodd" d="M97.1168 41.9276C97.1168 39.1645 96.2294 37.7518 94.5981 37.7518C92.9468 37.7518 92.0381 39.0605 92.0381 41.9489C92.0381 44.7744 92.9261 46.1866 94.5367 46.1866C96.188 46.1866 97.1168 44.8161 97.1168 41.9276ZM90.0358 42.094C90.0358 39.1026 91.6458 36.8795 94.7015 36.8795C97.3437 36.8795 99.0985 38.6657 99.0985 41.9073C99.0985 45.0646 97.2202 47.0803 94.4741 47.0803C91.8319 47.0803 90.0358 45.1901 90.0358 42.094Z" fill="black"/>
<path id="Fill 25" fill-rule="evenodd" clip-rule="evenodd" d="M99.846 45.9792L101.292 45.7092L101.518 44.1306V34.6564L101.292 33.0563L99.6398 32.7864V32.1424L103.48 31.7684L103.273 34.6564V44.1306L103.5 45.7092L104.925 45.9792V46.6237H99.846V45.9792Z" fill="black"/>
<path id="Fill 27" fill-rule="evenodd" clip-rule="evenodd" d="M106.297 45.9792L107.742 45.7092L107.969 44.1306V34.6564L107.742 33.0563L106.091 32.7864V32.1424L109.93 31.7684L109.724 34.6564V44.1306L109.951 45.7092L111.375 45.9792V46.6237H106.297V45.9792Z" fill="black"/>
<path id="Fill 29" fill-rule="evenodd" clip-rule="evenodd" d="M116.616 40.432L118.02 40.2239C118.02 38.5829 117.257 37.7308 116.12 37.7308C114.965 37.7308 114.159 38.6037 113.933 40.432H116.616ZM112.115 42.0731C112.115 38.9158 113.705 36.9002 116.286 36.9002C118.454 36.9002 119.961 38.3123 119.878 41.2633H113.911C113.911 41.2633 113.891 41.5535 113.891 41.7199C113.891 44.068 115.026 45.7298 117.215 45.7298C117.875 45.7298 118.618 45.5639 119.341 45.0235L119.754 45.5842C118.578 46.6646 117.69 47.0594 116.204 47.0594C113.747 47.0594 112.115 45.2726 112.115 42.0731Z" fill="black"/>
<path id="Fill 31" fill-rule="evenodd" clip-rule="evenodd" d="M127.033 40.4529C127.033 38.8118 126.476 37.606 125.134 37.606C123.936 37.606 123.296 38.6245 123.296 40.3275C123.296 41.9691 123.936 42.946 125.237 42.946C126.393 42.946 127.033 41.9899 127.033 40.4529ZM128.788 49.1161C128.788 48.3271 128.272 47.8698 126.042 47.4953L124.061 47.1635C123.482 47.4953 122.677 48.2017 122.677 48.9918C122.677 50.1965 123.875 50.9861 125.712 50.9861C127.446 50.9861 128.788 50.2173 128.788 49.1161ZM121.087 49.5317C121.087 48.4311 122.161 47.4542 123.255 46.9976C122.243 46.7681 121.562 46.2496 121.562 45.5016C121.562 44.6085 122.305 43.964 123.42 43.4027C122.181 42.9044 121.418 41.7408 121.418 40.2454C121.418 38.4165 122.76 36.817 125.175 36.817C125.96 36.817 126.682 36.9627 127.466 37.4609L130.192 36.7546V38.0841H128.065C128.581 38.7494 128.871 39.2685 128.871 40.3275C128.871 42.1767 127.343 43.7564 125.216 43.7564C124.927 43.7564 124.555 43.7351 124.226 43.6518C123.647 43.9432 123.173 44.379 123.173 44.712C123.173 45.4386 124.267 45.564 125.877 45.8126C127.838 46.1247 129.964 46.2074 129.964 48.3889C129.964 50.4046 128.065 52.0457 124.948 52.0457C122.718 52.0457 121.087 51.0901 121.087 49.5317Z" fill="black"/>
<path id="Fill 33" fill-rule="evenodd" clip-rule="evenodd" d="M135.353 40.432L136.757 40.2239C136.757 38.5829 135.993 37.7308 134.857 37.7308C133.702 37.7308 132.896 38.6037 132.669 40.432H135.353ZM130.852 42.0731C130.852 38.9158 132.442 36.9002 135.023 36.9002C137.191 36.9002 138.697 38.3123 138.615 41.2633H132.648C132.648 41.2633 132.628 41.5535 132.628 41.7199C132.628 44.068 133.763 45.7298 135.952 45.7298C136.612 45.7298 137.355 45.5639 138.079 45.0235L138.491 45.5842C137.314 46.6646 136.427 47.0594 134.94 47.0594C132.483 47.0594 130.852 45.2726 130.852 42.0731Z" fill="black"/>
</g>
</g>
</svg>
