<svg fill="none" xmlns="http://www.w3.org/2000/svg" viewBox="0 0 180 72"><g id="college-logo"><path fill="#fff" d="M0 0h180v72H0z"/><g id="Group 3"><g id="Group"><g id="Group 68"><mask id="mask0" maskUnits="userSpaceOnUse" x="0" y="0" width="66" height="72"><path id="Clip 67" fill-rule="evenodd" clip-rule="evenodd" d="M0 0h65.267v72H0V0z" fill="#fff"/></mask><g mask="url(#mask0)"><path id="Fill 66" fill-rule="evenodd" clip-rule="evenodd" d="M1.627 1.627v31.355c0 .053.075 5.68 3.959 13.058 3.561 6.769 11.145 16.43 27.066 24.156 15.933-7.728 23.507-17.39 27.057-24.157 3.871-7.377 3.932-13.003 3.932-13.058V1.627H1.627zM32.652 72l-.352-.169c-16.617-7.97-24.51-18.065-28.205-25.13C.062 38.99 0 33.225 0 32.984V0h65.267v32.982c0 .24-.045 6.004-4.066 13.716-3.684 7.064-11.567 17.16-28.198 25.133l-.351.17z" fill="#0D395F"/></g></g><path id="Fill 69" fill-rule="evenodd" clip-rule="evenodd" d="M20.892 12.258a7.192 7.192 0 00-2.846-2.278c.434.628.8 1.4 1.083 2.278h1.763z" fill="#0D395F"/><path id="Fill 71" fill-rule="evenodd" clip-rule="evenodd" d="M15.763 9.518v2.74h2.086c-.526-1.434-1.291-2.406-2.086-2.74z" fill="#0D395F"/><path id="Fill 73" fill-rule="evenodd" clip-rule="evenodd" d="M11.782 15.92h2.762v-2.442h-2.446c-.17.736-.281 1.555-.316 2.443z" fill="#0D395F"/><path id="Fill 75" fill-rule="evenodd" clip-rule="evenodd" d="M12.458 12.258h2.086v-2.74c-.794.335-1.56 1.306-2.086 2.74z" fill="#0D395F"/><path id="Fill 77" fill-rule="evenodd" clip-rule="evenodd" d="M12.098 19.584h2.446V17.14h-2.762c.035.888.146 1.707.316 2.444z" fill="#0D395F"/><path id="Fill 79" fill-rule="evenodd" clip-rule="evenodd" d="M14.544 23.543v-2.739h-2.086c.527 1.433 1.292 2.405 2.086 2.74z" fill="#0D395F"/><path id="Fill 81" fill-rule="evenodd" clip-rule="evenodd" d="M10.563 17.14H8.02c.074.87.305 1.69.662 2.444h2.175a14.548 14.548 0 01-.294-2.443z" fill="#0D395F"/><path id="Fill 83" fill-rule="evenodd" clip-rule="evenodd" d="M18.209 13.478h-2.445v2.442h2.762a13.211 13.211 0 00-.317-2.442z" fill="#0D395F"/><path id="Fill 85" fill-rule="evenodd" clip-rule="evenodd" d="M10.856 13.478H8.682a7.086 7.086 0 00-.662 2.442h2.543c.032-.86.132-1.678.293-2.442z" fill="#0D395F"/><path id="Fill 87" fill-rule="evenodd" clip-rule="evenodd" d="M9.417 20.804a7.186 7.186 0 002.845 2.276c-.435-.628-.801-1.4-1.084-2.276H9.417z" fill="#0D395F"/><path id="Fill 89" fill-rule="evenodd" clip-rule="evenodd" d="M19.745 15.92h2.543a7.107 7.107 0 00-.662-2.442h-2.175c.16.763.26 1.582.294 2.443z" fill="#0D395F"/><path id="Fill 91" fill-rule="evenodd" clip-rule="evenodd" d="M12.261 9.98a7.203 7.203 0 00-2.845 2.278h1.763c.282-.878.648-1.648 1.082-2.277z" fill="#0D395F"/><path id="Fill 93" fill-rule="evenodd" clip-rule="evenodd" d="M19.45 19.584h2.176a7.109 7.109 0 00.662-2.444h-2.543c-.034.861-.134 1.68-.295 2.444z" fill="#0D395F"/><path id="Fill 95" fill-rule="evenodd" clip-rule="evenodd" d="M57.62 20.237l-7.82 4.585-7.823-4.585v-8.853h1.22v8.154l6.604 3.87 6.6-3.87v-8.154h1.219v8.853zM44.427 10.61s3.254.053 4.716 2.744v8.176c-1.462-2.69-4.716-2.744-4.716-2.744s-.046-8.229 0-8.176zm5.927 2.814c1.477-2.69 4.766-2.743 4.766-2.743.048-.053 0 8.176 0 8.176s-3.288.052-4.766 2.743v-8.176zM39.712 26.028H25.556v-1.423h2.143v-6.996h9.867v6.996h2.146v1.423zm-24.558-1.112c-4.623 0-8.385-3.762-8.385-8.385 0-4.624 3.761-8.386 8.385-8.386 4.623 0 8.385 3.762 8.385 8.386 0 4.623-3.762 8.385-8.385 8.385zM33.346 3.615v.812c.62.267 1.057.857 1.057 1.555 0 .695-.438 1.287-1.057 1.552v.987c.931.34 2.614 1.156 3.382 2.813.72 1.552.852 2.895.86 3.63h.663v1.424H27.017v-1.423h.663c.007-.736.138-2.08.858-3.63.769-1.654 2.45-2.473 3.384-2.815v-.987c-.62-.265-1.058-.856-1.058-1.551 0-.698.437-1.287 1.058-1.554v-.813H3.995v28.498s.005 1.282.43 3.416l.146-.05c3.054-1.043 8.564-2.83 12.212-2.83 3.649 0 4.988.968 8.49.968.402 0 .791.008 1.174.023v-6.4h12.374v6.61c2.478-.076 4.324-.003 6.556.4 3.09.559 4.99 2.57 7.186 2.904 2.197.334 4.132-.15 6.479-.037l1.435.068c.793-3.112.796-5.072.796-5.072V3.615H33.344z" fill="#0D395F"/><path id="Fill 97" fill-rule="evenodd" clip-rule="evenodd" d="M18.526 17.14h-2.763v2.444h2.446a13.21 13.21 0 00.317-2.443z" fill="#0D395F"/><path id="Fill 99" fill-rule="evenodd" clip-rule="evenodd" d="M15.763 23.543c.795-.335 1.56-1.306 2.086-2.74h-2.086v2.74z" fill="#0D395F"/><path id="Fill 101" fill-rule="evenodd" clip-rule="evenodd" d="M18.045 23.081a7.2 7.2 0 002.847-2.277h-1.763c-.284.878-.65 1.648-1.084 2.277z" fill="#0D395F"/><path id="Fill 103" fill-rule="evenodd" clip-rule="evenodd" d="M31.314 33.066h2.639v-4.564h-2.639v4.564z" fill="#0D395F"/><path id="Fill 105" fill-rule="evenodd" clip-rule="evenodd" d="M30.853 54.611c-.202-.16-.515-.322-1.038-.539-.393.21-.675.531-.675.997 0 .563.402.925 1.03.925.562 0 .948-.33.948-.803 0-.25-.088-.444-.265-.58z" fill="#0D395F"/><path id="Fill 106" fill-rule="evenodd" clip-rule="evenodd" d="M30.177 53.325c.353-.178.773-.458.773-.902 0-.426-.314-.682-.853-.682-.515 0-.853.28-.853.698 0 .467.556.733.933.886z" fill="#0D395F"/><path id="Fill 107" fill-rule="evenodd" clip-rule="evenodd" d="M33.934 52.44c-.13.345-.185.803-.185 1.374 0 .54.04.959.111 1.256.146.627.435.892.772.892.339 0 .611-.29.757-.756.104-.345.152-.803.152-1.343 0-.523-.04-.885-.12-1.231-.153-.627-.426-.867-.78-.867-.314 0-.555.25-.707.675z" fill="#0D395F"/><path id="Fill 108" fill-rule="evenodd" clip-rule="evenodd" d="M39.127 56.622c-1.415 0-1.865-1.65-1.865-2.8 0-1.583.805-2.725 1.874-2.725 1.44 0 1.89 1.584 1.89 2.75 0 1.665-.772 2.775-1.899 2.775zm-4.502 0c-1.416 0-1.866-1.65-1.866-2.8 0-1.583.804-2.725 1.873-2.725 1.44 0 1.891 1.584 1.891 2.75 0 1.665-.772 2.775-1.898 2.775zm-4.545.031c-.923 0-1.898-.458-1.898-1.519 0-.651.436-1.174 1.03-1.383-.49-.2-.86-.692-.86-1.231 0-1.022.949-1.423 1.825-1.423 1.014 0 1.713.539 1.713 1.327 0 .658-.515 1.03-1.07 1.238.781.322 1.272.707 1.272 1.376 0 1.037-1.087 1.615-2.012 1.615zm-2.677-.152h-2.55v-.715h.933v-3.572c-.08.05-.33.21-.547.314a7.982 7.982 0 01-.61.265l-.218-.473 1.617-1.136h.628v4.602h.747v.715zM40.869 44.52v.028H24.427L12.512 52.01c4.245 5.192 10.6 10.605 20.127 15.167 9.548-4.572 15.91-9.994 20.148-15.193L40.87 44.52z" fill="#0D395F"/><path id="Fill 109" fill-rule="evenodd" clip-rule="evenodd" d="M39.144 51.765c-.314 0-.555.25-.708.675-.13.345-.184.803-.184 1.374 0 .54.04.959.112 1.256.144.627.433.892.772.892.338 0 .61-.29.756-.756.105-.345.152-.803.152-1.343 0-.523-.04-.885-.12-1.231-.153-.627-.427-.867-.78-.867z" fill="#0D395F"/><path id="Fill 110" fill-rule="evenodd" clip-rule="evenodd" d="M24.145 36.278h16.977v-1.22H24.145v1.22z" fill="#0D395F"/><path id="Fill 111" fill-rule="evenodd" clip-rule="evenodd" d="M27.461 41.696h10.346v-2.472H27.46v2.472zm-1.22 1.22h12.785v-4.911H26.241v4.911z" fill="#0D395F"/><path id="Fill 112" fill-rule="evenodd" clip-rule="evenodd" d="M31.314 23.058h2.639v-4.095h-2.639v4.095z" fill="#0D395F"/><path id="Fill 113" fill-rule="evenodd" clip-rule="evenodd" d="M29.08 23.056h.814v-4.087h-.814v4.087z" fill="#0D395F"/><path id="Fill 114" fill-rule="evenodd" clip-rule="evenodd" d="M35.372 23.056h.814v-4.087h-.814v4.087z" fill="#0D395F"/><path id="Fill 115" fill-rule="evenodd" clip-rule="evenodd" d="M33.409 5.982c0 .404-.347.733-.774.733-.43 0-.776-.329-.776-.733 0-.407.347-.735.776-.735.427 0 .774.328.774.735z" fill="#0D395F"/><path id="Fill 116" fill-rule="evenodd" clip-rule="evenodd" d="M24.398 40.126l-14.114 8.9c.3.44.615.88.945 1.326l13.17-8.304v-1.922z" fill="#0D395F"/><path id="Fill 117" fill-rule="evenodd" clip-rule="evenodd" d="M40.868 42.117l13.146 8.309c.33-.446.646-.887.947-1.327l-14.093-8.906v1.925z" fill="#0D395F"/></g></g><g id="Group 2 Copy"><path id="Fill 1" fill-rule="evenodd" clip-rule="evenodd" d="M77.31 23.21l1.673-.332.206-2.098v-7.459l-.206-2.098-1.673-.332v-.623h4.459l1.053 3.053 3.118 8.165 3.199-8.185.97-3.033h4.46v.623l-1.652.332-.227 2.098v7.459l.227 2.098 1.652.333v.644H88.87v-.644l1.651-.333.227-2.098v-9.1l-3.55 9.1-1.053 3.075h-1.341L83.69 20.78l-3.572-9.1v9.1l.227 2.098 1.651.333v.644H77.31v-.644z" fill="#000"/><path id="Fill 2" fill-rule="evenodd" clip-rule="evenodd" d="M97.226 10.455c0-.707.578-1.31 1.3-1.31.702 0 1.301.583 1.301 1.33 0 .665-.537 1.288-1.3 1.288-.703 0-1.301-.52-1.301-1.308zM96.152 23.21l1.446-.27.206-1.58v-4.28l-.206-1.599-1.652-.27v-.644l3.84-.373-.207 2.887v4.28l.206 1.579 1.446.27v.644h-5.079v-.644z" fill="#000"/><path id="Fill 4" fill-rule="evenodd" clip-rule="evenodd" d="M108.59 21.57v-6.15c-.578-.25-1.033-.374-1.673-.374-1.941 0-3.014 1.62-3.014 4.176 0 2.264.826 3.636 2.436 3.636.724 0 1.487-.333 2.251-1.288zm-6.545-1.911c0-3.242 2.023-5.527 4.955-5.527.578 0 1.032.062 1.59.187v-2.431l-.228-1.6-1.651-.27v-.644L110.572 9l-.228 2.888v9.474l.228 1.579 1.341.27v.644l-3.323.436.31-1.973c-.951 1.288-1.921 1.973-3.283 1.973-2.086 0-3.572-1.807-3.572-4.632z" fill="#000"/><path id="Fill 6" fill-rule="evenodd" clip-rule="evenodd" d="M119.203 21.57v-6.15c-.578-.25-1.032-.374-1.672-.374-1.942 0-3.014 1.62-3.014 4.176 0 2.264.825 3.636 2.436 3.636.723 0 1.487-.333 2.25-1.288zm-6.545-1.911c0-3.242 2.024-5.527 4.955-5.527a6.81 6.81 0 011.59.187v-2.431l-.227-1.6-1.651-.27v-.644l3.86-.374-.227 2.888v9.474l.227 1.579 1.341.27v.644l-3.323.436.31-1.973c-.95 1.288-1.92 1.973-3.283 1.973-2.085 0-3.572-1.807-3.572-4.632z" fill="#000"/><path id="Fill 8" fill-rule="evenodd" clip-rule="evenodd" d="M123.83 23.21l1.445-.269.227-1.58v-9.473l-.227-1.6-1.651-.27v-.644l3.84-.374-.207 2.888v9.474l.227 1.58 1.424.269v.644h-5.078v-.644z" fill="#000"/><path id="Fill 10" fill-rule="evenodd" clip-rule="evenodd" d="M134.149 17.664l1.403-.208c0-1.641-.763-2.493-1.899-2.493-1.156 0-1.961.873-2.188 2.7h2.684zm-4.501 1.641c0-3.158 1.59-5.173 4.17-5.173 2.168 0 3.675 1.413 3.593 4.363h-5.967s-.02.29-.02.457c0 2.347 1.135 4.01 3.324 4.01a3.46 3.46 0 002.125-.707l.414.561c-1.177 1.081-2.064 1.475-3.551 1.475-2.457 0-4.088-1.787-4.088-4.986z" fill="#000"/><path id="Fill 12" fill-rule="evenodd" clip-rule="evenodd" d="M145.883 19.14c0-2.14-.909-3.595-2.291-3.595-.846 0-1.652.352-2.395 1.226v4.59l.206 1.809c.496.166.847.249 1.384.249 2.127 0 3.096-1.912 3.096-4.28zm-6.462 4.715V11.888l-.206-1.6-1.651-.27v-.644L141.403 9l-.206 2.888v3.906c.763-1.018 1.879-1.662 3.138-1.662 1.982 0 3.365 1.704 3.365 4.342 0 3.22-1.92 5.817-5.637 5.817-.866 0-1.465 0-2.642-.436z" fill="#000"/><path id="Fill 14" fill-rule="evenodd" clip-rule="evenodd" d="M150.095 21.05v-3.968l-.227-1.6-1.611-.27v-.644l3.82-.373-.207 2.887v3.49c0 1.434.66 2.306 1.962 2.306.887 0 1.692-.54 2.27-1.246v-4.55l-.206-1.6-1.611-.27v-.644l3.819-.373-.226 2.887v4.28l.226 1.58 1.487.269v.644l-3.489.374.228-1.87c-.971 1.351-1.838 1.932-3.304 1.932-1.817 0-2.931-1.163-2.931-3.24z" fill="#000"/><g id="Group 18"><mask id="mask1" maskUnits="userSpaceOnUse" x="168" y="14" width="12" height="16"><path id="Clip 17" fill-rule="evenodd" clip-rule="evenodd" d="M168.997 14.568h10.157v14.48h-10.157v-14.48z" fill="#fff"/></mask><g mask="url(#mask1)"><path id="Fill 16" fill-rule="evenodd" clip-rule="evenodd" d="M169.823 28.779v-.706l2.064-.333.887-1.454.889-2.098-2.891-7.106-.846-1.62-.929-.25v-.644h4.521v.644l-1.321.25.496 1.62 1.857 4.8 1.734-4.8.454-1.62-1.3-.25v-.644h3.716v.644l-1.053.25-.784 1.62-4.501 11.967-2.993-.27z" fill="#000"/></g></g><path id="Fill 19" fill-rule="evenodd" clip-rule="evenodd" d="M167.068 14.41c-1.172 0-2.097.66-2.961 2.124-.003-.023-.007-.045-.008-.067l.003-.243c.007-.105.02-.211.031-.316l.079-.693c.038-.337.075-.675.114-1.012l-3.63.373v.643l1.65.27.226 1.598v4.274l-.226 1.578-1.443.27v.643h5.298v-.643l-1.649-.27-.226-1.578v-3.924l.003-.084c.598-.743 1.399-1.012 2.017-1.012.433 0 .866.145 1.217.31l.516-2.095a3.059 3.059 0 00-1.011-.145z" fill="#000"/><path id="Fill 21" fill-rule="evenodd" clip-rule="evenodd" d="M77 39.871c0-3.823 2.147-7.168 7.122-7.168 1.28 0 2.395.104 4.088.457l.207 3.159h-1.012l-.474-2.328a8.937 8.937 0 00-2.87-.457c-3.16 0-4.976 2.307-4.976 5.963 0 3.782 1.817 6.628 5.182 6.628.846 0 2.002-.208 2.828-.561l.475-2.223h1.012l-.207 3.178c-1.424.25-2.395.437-4.5.437-4.872 0-6.875-3.034-6.875-7.085z" fill="#000"/><path id="Fill 23" fill-rule="evenodd" clip-rule="evenodd" d="M97.117 41.928c0-2.764-.888-4.176-2.519-4.176-1.651 0-2.56 1.308-2.56 4.197 0 2.825.888 4.238 2.499 4.238 1.651 0 2.58-1.37 2.58-4.26zm-7.081.166c0-2.991 1.61-5.215 4.665-5.215 2.643 0 4.398 1.787 4.398 5.028 0 3.158-1.879 5.173-4.625 5.173-2.642 0-4.438-1.89-4.438-4.986z" fill="#000"/><path id="Fill 25" fill-rule="evenodd" clip-rule="evenodd" d="M99.846 45.98l1.446-.27.226-1.58v-9.474l-.226-1.6-1.652-.27v-.644l3.84-.374-.207 2.888v9.475l.227 1.578 1.425.27v.645h-5.079v-.645z" fill="#000"/><path id="Fill 27" fill-rule="evenodd" clip-rule="evenodd" d="M106.297 45.98l1.445-.27.227-1.58v-9.474l-.227-1.6-1.651-.27v-.644l3.839-.374-.206 2.888v9.475l.227 1.578 1.424.27v.645h-5.078v-.645z" fill="#000"/><path id="Fill 29" fill-rule="evenodd" clip-rule="evenodd" d="M116.616 40.432l1.404-.208c0-1.641-.763-2.493-1.9-2.493-1.155 0-1.961.873-2.187 2.701h2.683zm-4.501 1.641c0-3.157 1.59-5.173 4.171-5.173 2.168 0 3.675 1.412 3.592 4.363h-5.967s-.02.29-.02.457c0 2.348 1.135 4.01 3.324 4.01.66 0 1.403-.166 2.126-.706l.413.56c-1.176 1.08-2.064 1.475-3.55 1.475-2.457 0-4.089-1.786-4.089-4.986z" fill="#000"/><path id="Fill 31" fill-rule="evenodd" clip-rule="evenodd" d="M127.033 40.453c0-1.641-.557-2.847-1.899-2.847-1.198 0-1.838 1.018-1.838 2.721 0 1.642.64 2.619 1.941 2.619 1.156 0 1.796-.956 1.796-2.493zm1.755 8.663c0-.789-.516-1.246-2.746-1.62l-1.981-.333c-.579.332-1.384 1.039-1.384 1.829 0 1.205 1.198 1.994 3.035 1.994 1.734 0 3.076-.769 3.076-1.87zm-7.701.416c0-1.1 1.074-2.078 2.168-2.534-1.012-.23-1.693-.748-1.693-1.496 0-.894.743-1.538 1.858-2.1-1.239-.498-2.002-1.661-2.002-3.157 0-1.828 1.342-3.428 3.757-3.428.785 0 1.507.146 2.291.644l2.726-.706v1.33h-2.127c.516.664.806 1.184.806 2.242 0 1.85-1.528 3.43-3.655 3.43a4.21 4.21 0 01-.99-.105c-.579.291-1.053.727-1.053 1.06 0 .727 1.094.852 2.704 1.1 1.961.313 4.087.395 4.087 2.577 0 2.016-1.899 3.657-5.016 3.657-2.23 0-3.861-.956-3.861-2.514z" fill="#000"/><path id="Fill 33" fill-rule="evenodd" clip-rule="evenodd" d="M135.353 40.432l1.404-.208c0-1.641-.764-2.493-1.9-2.493-1.155 0-1.961.873-2.188 2.701h2.684zm-4.501 1.641c0-3.157 1.59-5.173 4.171-5.173 2.168 0 3.674 1.412 3.592 4.363h-5.967s-.02.29-.02.457c0 2.348 1.135 4.01 3.324 4.01.66 0 1.403-.166 2.127-.706l.412.56c-1.177 1.08-2.064 1.475-3.551 1.475-2.457 0-4.088-1.786-4.088-4.986z" fill="#000"/></g></g></svg>